<svg width="478" height="107" viewBox="0 0 478 107" fill="none" xmlns="http://www.w3.org/2000/svg">
<path d="M59.3105 74.55C53.8505 66.3 44.3905 57.55 34.3205 52.21C42.2205 38.85 47.6505 20.18 48.2505 1.82996C48.2505 1.59996 48.1705 1.37997 48.0105 1.21997C47.8505 1.05997 47.6305 0.959961 47.4005 0.959961H28.5505C28.3205 0.959961 28.1105 1.04996 27.9505 1.20996C27.7905 1.36996 27.7005 1.58997 27.7105 1.80997C27.9205 19.11 25.8105 35.69 22.2305 47.69C16.8905 46.61 11.7705 46.93 7.38049 49.25C2.96049 51.46 0.0404892 56.56 0.270489 61.66C0.460489 65.73 2.56048 68.84 6.06048 70.2C10.7205 71.88 15.8705 70.95 20.9305 67.52C21.9505 66.83 22.9505 66.05 23.9405 65.19C33.3505 74.77 43.0005 91.3 45.8405 100.96C45.9405 101.3 46.2405 101.54 46.5905 101.56C46.6105 101.56 46.6305 101.56 46.6505 101.56C46.9805 101.56 47.2805 101.37 47.4105 101.07L59.3705 75.36C59.4905 75.09 59.4705 74.78 59.3105 74.54V74.55ZM14.2205 63.65C12.5105 65.32 10.7405 66.13 9.05049 66.08C7.82049 65.94 7.20049 64.71 7.02049 63.61C6.72049 61.77 7.47049 59.3 9.80049 58.21C11.3205 57.52 13.2105 57.67 15.4305 58.68C16.0305 58.95 16.6505 59.28 17.2705 59.66C16.3005 61.27 15.2905 62.61 14.2305 63.64L14.2205 63.65Z" fill="white"/>
<path d="M116.031 1.29996C115.871 1.08996 115.621 0.959961 115.351 0.959961H110.571C110.321 0.959961 110.071 1.07996 109.911 1.26996C101.631 11.52 86.2407 16.24 62.8707 15.68C62.6507 15.68 62.4207 15.76 62.2607 15.92C62.1007 16.08 62.0107 16.3 62.0107 16.52V35.73C62.0107 36.13 62.2908 36.48 62.6908 36.56C62.9708 36.62 65.7408 37.15 69.9408 37.15C76.4107 37.15 86.2607 35.88 95.5807 29.66C110.921 19.42 115.961 2.74998 116.161 2.03998C116.231 1.78998 116.191 1.50996 116.031 1.29996Z" fill="white"/>
<path d="M113.97 57.6605L109.59 44.4505C109.52 44.2305 109.36 44.0505 109.15 43.9505C108.94 43.8505 108.7 43.8405 108.49 43.9205L104.24 45.5505H58.4601C57.9901 45.5505 57.6201 45.9305 57.6201 46.3905V57.9205C57.6201 58.3905 58.0001 58.7605 58.4601 58.7605H113.18C113.45 58.7605 113.71 58.6305 113.86 58.4105C114.02 58.1905 114.06 57.9105 113.98 57.6505L113.97 57.6605Z" fill="white"/>
<path d="M55.6306 33.3703C56.2006 27.3403 56.2006 23.3303 56.1906 23.2203C56.1906 23.1703 56.1706 23.1203 56.1606 23.0703C56.1606 23.0203 56.1506 22.9703 56.1306 22.9203C56.1006 22.8503 56.0606 22.8003 56.0206 22.7403C56.0006 22.7103 55.9906 22.6803 55.9606 22.6503C55.9606 22.6503 55.9605 22.6503 55.9505 22.6503C55.8905 22.5903 55.8105 22.5403 55.7305 22.4903C55.7105 22.4903 55.7005 22.4603 55.6805 22.4603C55.5805 22.4203 55.4706 22.3903 55.3506 22.3903H16.2305L12.0206 20.7603C11.8006 20.6803 11.5606 20.6903 11.3506 20.7803C11.1406 20.8803 10.9806 21.0603 10.9106 21.2803L6.57056 34.4903C6.49056 34.7503 6.53055 35.0303 6.69055 35.2503C6.85055 35.4703 7.10054 35.6003 7.37054 35.6003H48.2106C42.4606 56.2003 28.5805 71.3503 6.06055 81.6703C5.76055 81.8103 5.57056 82.1103 5.57056 82.4403V105.71C5.57056 105.99 5.71055 106.26 5.95055 106.42C6.09055 106.51 6.25055 106.56 6.41055 106.56C6.53055 106.56 6.64055 106.54 6.75055 106.49C6.99055 106.38 31.0706 95.5803 43.6606 74.8803C51.3106 62.3003 54.2806 46.0403 55.4406 35.1503C55.4906 35.0503 55.5305 34.9303 55.5405 34.8103L55.6205 33.3803L55.6306 33.3703Z" fill="white"/>
<path d="M100.2 15.2505C99.9304 15.1005 99.5904 15.1205 99.3404 15.2905L78.9804 28.8005C78.7604 28.9505 78.6204 29.1905 78.6004 29.4505C76.3304 65.7405 75.4804 79.3205 48.8304 105.56C48.5504 105.84 48.5004 106.27 48.7004 106.6C48.8604 106.85 49.1304 107 49.4204 107C49.5104 107 49.6004 106.99 49.6904 106.95C68.7204 100.42 100.64 79.9105 100.64 15.9905C100.64 15.6805 100.47 15.3905 100.2 15.2505Z" fill="white"/>
<path d="M123.201 80.1705C119.331 75.6705 116.361 75.1905 113.491 74.7205C110.861 74.2905 108.141 73.8505 104.341 70.1405C96.2205 61.4905 93.9805 50.8105 93.2505 47.2905L93.1805 46.9405C93.1005 46.5505 92.7605 46.2905 92.3405 46.2705C91.9405 46.2705 91.5905 46.5705 91.5205 46.9605L91.3405 47.9505C89.1905 59.8505 87.4905 69.2505 91.8105 84.5405C94.7405 95.6605 99.8705 102.201 107.061 103.971C108.981 104.441 110.801 104.681 112.511 104.681C117.381 104.681 121.281 102.781 123.591 99.1705C128.171 92.0105 128.041 85.8005 123.211 80.1705H123.201Z" fill="white"/>
<path d="M158.37 1.14062H141.63C141.166 1.14062 140.79 1.5167 140.79 1.98062V105.641C140.79 106.105 141.166 106.481 141.63 106.481H158.37C158.834 106.481 159.21 106.105 159.21 105.641V1.98062C159.21 1.5167 158.834 1.14062 158.37 1.14062Z" fill="white"/>
<path d="M232.601 6.53972H177.631L173.421 4.90972C173.201 4.82972 172.961 4.83971 172.751 4.92971C172.541 5.01971 172.381 5.20971 172.311 5.42971L167.971 18.6397C167.891 18.8997 167.931 19.1797 168.091 19.3997C168.251 19.6197 168.501 19.7497 168.771 19.7497H209.971C199.551 50.6397 166.461 65.4297 166.081 65.5997C165.681 65.7797 165.481 66.2297 165.621 66.6397C165.741 66.9897 166.061 67.2097 166.421 67.2097C166.491 67.2097 166.551 67.2097 166.621 67.1897C207.211 57.3597 233.441 33.8797 233.441 7.37972C233.441 6.90972 233.061 6.53972 232.601 6.53972Z" fill="white"/>
<path d="M171.741 25.1699C165.701 25.1699 160.801 30.0799 160.801 36.1099C160.801 42.1399 165.711 47.0499 171.741 47.0499C177.771 47.0499 182.681 42.1399 182.681 36.1099C182.681 30.0799 177.771 25.1699 171.741 25.1699Z" fill="white"/>
<path d="M144.331 28.2705L130.661 23.5305C130.421 23.4505 130.151 23.4804 129.931 23.6104C129.711 23.7504 129.571 23.9805 129.541 24.2305C128.331 35.5405 121.001 62.1305 112.641 71.6305C112.371 71.9405 112.361 72.3905 112.611 72.7105C112.771 72.9205 113.021 73.0305 113.271 73.0305C113.411 73.0305 113.541 73.0005 113.671 72.9305C113.931 72.7905 139.561 58.6105 144.881 29.2105C144.951 28.8005 144.721 28.4005 144.331 28.2605V28.2705Z" fill="white"/>
<path d="M235.811 105.581L232.311 92.3708C232.251 92.1508 232.101 91.9608 231.901 91.8508C231.701 91.7408 231.461 91.7208 231.241 91.7908L226.171 93.4408H164.021C163.551 93.4408 163.181 93.8208 163.181 94.2808V105.811C163.181 106.281 163.561 106.651 164.021 106.651H235.001C235.261 106.651 235.511 106.531 235.671 106.321C235.831 106.111 235.881 105.841 235.821 105.591L235.811 105.581Z" fill="white"/>
<path d="M168.661 86.4006H230.361C230.621 86.4006 230.871 86.2806 231.031 86.0706C231.191 85.8606 231.241 85.5906 231.181 85.3406L227.681 72.1306C227.621 71.9106 227.471 71.7206 227.271 71.6106C227.071 71.5006 226.831 71.4806 226.611 71.5506L221.541 73.2006H168.671C168.201 73.2006 167.831 73.5806 167.831 74.0406V85.5706C167.831 86.0406 168.211 86.4106 168.671 86.4106L168.661 86.4006Z" fill="white"/>
<path d="M207.881 65.6504H191.141C190.677 65.6504 190.301 66.0265 190.301 66.4904V105.81C190.301 106.274 190.677 106.65 191.141 106.65H207.881C208.345 106.65 208.721 106.274 208.721 105.81V66.4904C208.721 66.0265 208.345 65.6504 207.881 65.6504Z" fill="white"/>
<path d="M231.86 45.4105C228.45 42.0205 222.44 41.1805 215.36 43.0905C211.11 44.2405 206.39 43.3605 201.71 40.5605C193.76 35.8005 187.06 26.0305 184.65 15.6705C184.55 15.2505 184.16 14.9805 183.73 15.0205C183.3 15.0705 182.98 15.4305 182.98 15.8605C182.98 16.1705 182.98 23.4305 185.04 32.3405C186.95 40.6105 191.08 51.8405 199.87 58.3505C207.28 63.8405 214.6 66.7305 220.75 66.7305C222.7 66.7305 224.53 66.4405 226.21 65.8505C230.23 64.4405 233.05 61.3305 234.15 57.1105C235.41 52.3005 234.59 48.1505 231.83 45.4105H231.86Z" fill="white"/>
<path d="M346.44 91.0003C346.26 88.6603 347.56 67.9903 348.7 49.7603C349.72 33.5803 350.67 18.2903 350.67 15.0403C350.67 8.45034 349.16 7.76033 345.44 6.72033C345 6.60033 344.53 6.46033 344.01 6.31033C339.43 4.90033 315.04 4.09034 300.03 5.26034C285.47 6.39034 269.36 10.2703 269.2 10.3103C268.93 10.3703 268.71 10.5603 268.61 10.8203C268.51 11.0703 268.54 11.3603 268.69 11.5903L274.02 19.7103C274.22 20.0103 274.59 20.1503 274.94 20.0603C275.07 20.0303 288.1 16.7103 306.2 17.1303C324.57 17.5603 330.67 19.5803 330.54 30.6803C328.89 67.1403 325.63 78.9303 324.06 84.6003L323.97 84.9403C322.49 90.3203 321.74 92.5803 321.73 92.6003C321.71 92.6603 321.7 92.7303 321.69 92.7903C321.34 96.9003 324 97.7203 328.42 98.6003C333.67 99.6403 339.1 101.04 343.7 102.56C345.17 103.04 346.36 103.29 347.28 103.29C348.28 103.29 348.96 103 349.33 102.43C349.88 101.59 349.57 100.4 348.46 99.1603C346.99 97.5103 346.78 95.4703 346.45 91.0003H346.44Z" fill="white"/>
<path d="M298.691 22.6201C294.311 22.6201 290.751 26.1801 290.751 30.5601C290.751 34.9401 294.311 38.5001 298.691 38.5001C303.071 38.5001 306.631 34.9401 306.631 30.5601C306.631 26.1801 303.071 22.6201 298.691 22.6201Z" fill="white"/>
<path d="M279.79 21.5605C274.83 21.5605 270.79 25.6005 270.79 30.5605C270.79 35.5205 274.83 39.5605 279.79 39.5605C284.75 39.5605 288.79 35.5205 288.79 30.5605C288.79 25.6005 284.75 21.5605 279.79 21.5605Z" fill="white"/>
<path d="M327.67 30.7305L314.74 20.9605C314.52 20.8005 314.24 20.7505 313.98 20.8305C313.72 20.9105 313.52 21.1105 313.43 21.3705C305.44 45.6405 285.62 68.5505 270.58 79.5705C270.25 79.8205 270.14 80.2705 270.33 80.6405C270.48 80.9305 270.77 81.1005 271.08 81.1005C271.17 81.1005 271.26 81.0905 271.35 81.0605C292.39 74.1005 318.3 57.4805 327.96 31.7105C328.09 31.3605 327.98 30.9705 327.68 30.7405L327.67 30.7305Z" fill="white"/>
<path d="M306.431 50.8697C289.981 39.6297 269.361 42.6297 269.161 42.6697C268.761 42.7297 268.461 43.0697 268.441 43.4797C268.431 43.8897 268.711 44.2397 269.101 44.3297C281.831 47.0997 289.821 54.3597 291.601 64.7897C292.741 71.4397 296.531 79.3197 302.441 81.9497C303.771 82.5397 305.151 82.8397 306.541 82.8397C308.661 82.8397 310.831 82.1597 312.961 80.8197C317.191 78.3497 319.611 74.5997 319.771 70.2597C320.001 63.8097 315.261 56.9297 306.421 50.8897L306.431 50.8697Z" fill="white"/>
<path d="M322.011 77.2405C321.671 77.0505 321.241 77.1305 320.981 77.4205C320.901 77.5105 313.031 86.2005 299.351 86.7505L298.741 86.7705C284.851 87.3205 276.471 87.6605 266.421 78.9505L265.361 78.0305C264.971 58.2505 264.491 29.7805 264.681 23.4305C264.441 14.8405 266.111 9.69053 267.011 6.92053C267.581 5.17053 267.861 4.29052 267.351 3.59052C267.081 3.21052 266.631 3.02051 266.041 3.02051C263.221 3.02051 250.061 4.63053 246.151 5.54053C244.621 5.90053 243.581 6.29053 243.101 7.14053C242.591 8.04053 242.911 9.03051 243.401 10.5205C243.611 11.1605 243.851 11.8905 244.081 12.7805C245.091 16.6105 246.381 51.0205 246.941 65.7105L247.131 70.8205C247.291 74.9005 247.491 78.5505 247.661 81.7805C248.031 88.4705 248.291 93.3105 247.941 96.8005C247.831 97.8705 247.651 98.7505 247.491 99.5305C247.191 100.981 246.961 102.131 247.671 103.001C248.421 103.921 249.891 104.231 253.721 104.251C254.661 104.251 255.551 104.281 256.371 104.301C257.161 104.321 257.911 104.341 258.601 104.341C261.021 104.341 262.851 104.101 264.101 102.851C264.771 102.181 265.221 101.241 265.481 99.9705C267.401 100.131 269.791 100.251 272.691 100.251C277.121 100.251 282.751 99.9805 289.721 99.1805C302.411 97.7205 308.261 95.9505 311.401 95.0005C313.681 94.3105 314.311 94.1405 315.131 94.5205C315.391 94.6405 315.631 94.7605 315.841 94.8605C316.761 95.3105 317.421 95.6305 318.111 95.2805C318.941 94.8505 319.101 93.9305 319.611 90.8605L319.761 89.9505C320.721 84.3005 322.391 78.2805 322.401 78.2205C322.511 77.8405 322.341 77.4405 321.991 77.2505L322.011 77.2405Z" fill="white"/>
<path d="M477.721 102.12L474.221 88.9099C474.161 88.6899 474.011 88.4999 473.811 88.3899C473.611 88.2799 473.371 88.2599 473.151 88.3299L468.081 89.9799H401.151C400.681 89.9799 400.311 90.3599 400.311 90.8199V102.35C400.311 102.82 400.691 103.19 401.151 103.19H476.911C477.171 103.19 477.421 103.07 477.581 102.86C477.741 102.65 477.791 102.38 477.731 102.13L477.721 102.12Z" fill="white"/>
<path d="M433.391 14.8505C433.861 14.8505 434.231 14.4705 434.231 14.0105V8.1105C434.231 7.6405 433.851 7.27051 433.391 7.27051H405.591C405.121 7.27051 404.751 7.6505 404.751 8.1105V55.2005C404.751 55.4705 404.881 55.6905 405.071 55.8505V57.2205C405.071 57.6905 405.451 58.0605 405.911 58.0605H433.391C433.861 58.0605 434.231 57.6805 434.231 57.2205V51.3205C434.231 50.8505 433.851 50.4805 433.391 50.4805H428.061V41.7205H432.541C433.011 41.7205 433.381 41.3405 433.381 40.8805V22.4305C433.381 21.9605 433.001 21.5905 432.541 21.5905H428.111V14.8605H433.391V14.8505ZM414.861 34.0805V29.1705H424.111V34.0805H414.861ZM414.861 50.4705V41.6705H420.231V50.4705H414.861ZM414.861 21.5805V14.8505H420.341V21.5805H414.861Z" fill="white"/>
<path d="M467.001 43.78C466.941 43.56 466.791 43.37 466.591 43.26C466.391 43.15 466.151 43.13 465.931 43.2L460.861 44.85H437.651C437.181 44.85 436.811 45.23 436.811 45.69V57.22C436.811 57.69 437.191 58.06 437.651 58.06H469.701C469.961 58.06 470.211 57.94 470.371 57.73C470.531 57.52 470.581 57.25 470.521 57L467.021 43.79L467.001 43.78Z" fill="white"/>
<path d="M450.541 30.8997H469.691C469.971 30.8997 470.241 30.7597 470.401 30.5197C470.561 30.2797 470.581 29.9798 470.471 29.7198L466.131 19.8798C465.951 19.4698 465.481 19.2697 465.051 19.4297L460.841 21.0598H456.021C457.601 17.1698 458.801 12.8797 459.561 8.23975C459.601 7.99975 459.531 7.74975 459.371 7.55975C459.211 7.36975 458.971 7.25977 458.731 7.25977H443.091C442.631 7.25977 442.261 7.62975 442.251 8.08975C441.921 25.5098 438.931 33.7598 434.541 40.7798C434.351 41.0798 434.371 41.4597 434.591 41.7397C434.751 41.9497 435.001 42.0698 435.261 42.0698C435.341 42.0698 435.431 42.0598 435.511 42.0298C441.381 40.2098 446.501 36.3498 450.561 30.8997H450.541Z" fill="white"/>
<path d="M433.61 64.6904H427.46C426.996 64.6904 426.62 65.0665 426.62 65.5304V98.9704C426.62 99.4343 426.996 99.8104 427.46 99.8104H433.61C434.074 99.8104 434.45 99.4343 434.45 98.9704V65.5304C434.45 65.0665 434.074 64.6904 433.61 64.6904Z" fill="white"/>
<path d="M449.501 64.6904H443.351C442.887 64.6904 442.511 65.0665 442.511 65.5304V98.9704C442.511 99.4343 442.887 99.8104 443.351 99.8104H449.501C449.965 99.8104 450.341 99.4343 450.341 98.9704V65.5304C450.341 65.0665 449.965 64.6904 449.501 64.6904Z" fill="white"/>
<path d="M466.23 64.6904H458.39C457.926 64.6904 457.55 65.0665 457.55 65.5304V98.9704C457.55 99.4343 457.926 99.8104 458.39 99.8104H466.23C466.694 99.8104 467.07 99.4343 467.07 98.9704V65.5304C467.07 65.0665 466.694 64.6904 466.23 64.6904Z" fill="white"/>
<path d="M418.571 64.6904H410.731C410.267 64.6904 409.891 65.0665 409.891 65.5304V98.9704C409.891 99.4343 410.267 99.8104 410.731 99.8104H418.571C419.035 99.8104 419.411 99.4343 419.411 98.9704V65.5304C419.411 65.0665 419.035 64.6904 418.571 64.6904Z" fill="white"/>
<path d="M400.161 19.6802C395.301 18.1702 390.361 12.9802 387.241 9.15018C387.481 8.17018 387.701 7.1902 387.881 6.1702C387.951 5.7602 387.721 5.36019 387.331 5.22019L375.161 1.00019C374.921 0.920188 374.651 0.950175 374.431 1.08017C374.211 1.22017 374.071 1.4502 374.041 1.7002C372.971 11.7602 366.451 35.4002 359.021 43.8402C358.751 44.1502 358.741 44.6002 358.991 44.9202C359.151 45.1302 359.401 45.2402 359.651 45.2402C359.791 45.2402 359.921 45.2102 360.051 45.1402C360.241 45.0402 376.481 36.0502 384.431 17.5602C385.611 21.1402 387.141 24.1302 388.531 26.4002C391.671 31.5202 395.891 35.8102 399.531 37.6102C399.651 37.6702 399.781 37.7002 399.901 37.7002C400.051 37.7002 400.211 37.6602 400.351 37.5702C400.601 37.4202 400.751 37.1502 400.751 36.8502V20.4602C400.751 20.0902 400.511 19.7602 400.161 19.6502V19.6802Z" fill="white"/>
<path d="M466.221 64.6904H410.731C410.267 64.6904 409.891 65.0665 409.891 65.5304V77.2604C409.891 77.7244 410.267 78.1004 410.731 78.1004H466.221C466.685 78.1004 467.061 77.7244 467.061 77.2604V65.5304C467.061 65.0665 466.685 64.6904 466.221 64.6904Z" fill="white"/>
<path d="M404.75 78.1605C404.5 77.9005 404.12 77.8104 403.79 77.9604C400.12 79.5905 396.37 80.9804 392.67 82.1805V59.0204H398.02C398.49 59.0204 398.86 58.6404 398.86 58.1805V52.8805C398.86 52.4105 398.48 52.0405 398.02 52.0405H392.67V47.4604H398.02C398.49 47.4604 398.86 47.0805 398.86 46.6205V41.3205C398.86 40.8505 398.48 40.4805 398.02 40.4805H369.14C368.67 40.4805 368.3 40.8605 368.3 41.3205V46.6205C368.3 47.0905 368.68 47.4604 369.14 47.4604H374.49V52.0405H369.14C368.67 52.0405 368.3 52.4205 368.3 52.8805V58.1805C368.3 58.6504 368.68 59.0204 369.14 59.0204H374.49V86.7905C364.45 88.7105 357.22 89.1505 357.09 89.1605C356.81 89.1805 356.56 89.3305 356.42 89.5605C356.28 89.8005 356.26 90.0905 356.37 90.3405L363.32 105.96C363.46 106.27 363.76 106.46 364.09 106.46C364.15 106.46 364.22 106.46 364.28 106.44C364.35 106.42 371.74 104.7 380.36 100.51C388.35 96.6305 399.1 89.7605 404.89 79.1305C405.06 78.8105 405.01 78.4205 404.77 78.1505L404.75 78.1605Z" fill="white"/>
<path d="M363.861 66.9297C359.141 66.9297 355.311 70.7697 355.311 75.4797C355.311 80.1897 359.151 84.0297 363.861 84.0297C368.571 84.0297 372.411 80.1897 372.411 75.4797C372.411 70.7697 368.571 66.9297 363.861 66.9297Z" fill="white"/>
<path d="M401.81 63.2598C398.33 63.2598 395.49 66.0897 395.49 69.5797C395.49 73.0697 398.32 75.8997 401.81 75.8997C405.3 75.8997 408.13 73.0697 408.13 69.5797C408.13 66.0897 405.3 63.2598 401.81 63.2598Z" fill="white"/>
</svg>
