<svg width="1920" height="1080" viewBox="0 0 1920 1080" fill="none" xmlns="http://www.w3.org/2000/svg">
<g clip-path="url(#clip0_567_1660)">
<mask id="mask0_567_1660" style="mask-type:luminance" maskUnits="userSpaceOnUse" x="0" y="0" width="1920" height="1080">
<path d="M1920 0H0V1080H1920V0Z" fill="white"/>
</mask>
<g mask="url(#mask0_567_1660)">
<path d="M1506.61 136.248C1652.24 210.602 1439.5 426.006 1658.8 352.273C1878.1 278.54 1937.96 521.981 1724.92 769.78C1511.87 1017.58 1468.55 727.316 1232.74 897.135C996.935 1066.95 1008.17 814.003 719.011 943.821C429.847 1073.64 496.419 758.283 288.275 814.06C80.1314 869.837 20.3624 635.495 255.506 373.13C490.65 110.765 946.881 44.8749 988.934 183.902C1030.99 322.929 1360.99 61.8949 1506.61 136.248Z" fill="#FFACB3"/>
</g>
</g>
<defs>
<clipPath id="clip0_567_1660">
<rect width="1920" height="1080" fill="white"/>
</clipPath>
</defs>
</svg>
