<svg width="1920" height="1080" viewBox="0 0 1920 1080" fill="none" xmlns="http://www.w3.org/2000/svg">
<g clip-path="url(#clip0_567_1668)">
<mask id="mask0_567_1668" style="mask-type:luminance" maskUnits="userSpaceOnUse" x="0" y="0" width="1920" height="1080">
<path d="M1920 0H0V1080H1920V0Z" fill="white"/>
</mask>
<g mask="url(#mask0_567_1668)">
<path d="M1670.99 331.441C1839.05 289.502 1948.14 572.217 1753.48 737.975C1558.82 903.733 1532.29 777.132 1285.25 902.227C1038.21 1027.32 1114.61 732.447 818.525 875.605C522.443 1018.76 522.053 826.64 307.031 875.605C92.0091 924.57 6.38016 627.771 241.666 391.384C476.952 154.997 831.317 -0.803673 887.5 195.847C943.683 392.498 1077.97 174.386 1346.39 124.327C1614.81 74.2683 1502.92 373.38 1670.99 331.441Z" fill="#FFACB3"/>
</g>
</g>
<defs>
<clipPath id="clip0_567_1668">
<rect width="1920" height="1080" fill="white"/>
</clipPath>
</defs>
</svg>
