<svg width="1920" height="1080" viewBox="0 0 1920 1080" fill="none" xmlns="http://www.w3.org/2000/svg">
<g clip-path="url(#clip0_567_1676)">
<mask id="mask0_567_1676" style="mask-type:luminance" maskUnits="userSpaceOnUse" x="0" y="0" width="1920" height="1080">
<path d="M1920 0H0V1080H1920V0Z" fill="white"/>
</mask>
<g mask="url(#mask0_567_1676)">
<path d="M1772.15 691.305C1661.83 869.605 1593.86 734.46 1399.2 900.218C1204.54 1065.98 1142.82 747.306 818.528 923.798C494.238 1100.29 622.564 763.736 331.194 862.079C39.8239 960.422 68.9539 527.799 312.243 276.979C555.532 26.1594 598.926 307.247 789.125 175.879C979.324 44.5114 1252.51 -20.7706 1308.69 175.879C1364.87 372.529 1565.39 158.81 1693.47 249.679C1821.55 340.548 1882.47 513.002 1772.15 691.305Z" fill="#FFACB3"/>
</g>
</g>
<defs>
<clipPath id="clip0_567_1676">
<rect width="1920" height="1080" fill="white"/>
</clipPath>
</defs>
</svg>
