<svg width="1920" height="1080" viewBox="0 0 1920 1080" fill="none" xmlns="http://www.w3.org/2000/svg">
<g clip-path="url(#clip0_567_1684)">
<mask id="mask0_567_1684" style="mask-type:luminance" maskUnits="userSpaceOnUse" x="0" y="0" width="1920" height="1080">
<path d="M1920 0H0V1080H1920V0Z" fill="white"/>
</mask>
<g mask="url(#mask0_567_1684)">
<path d="M1599.28 874.383C1443.88 927.023 1363.73 752.329 953.978 924.962C544.228 1097.59 683.018 732.486 358.728 908.978C34.4375 1085.47 -5.24237 676.259 256.65 382.658C518.542 89.0565 478.588 438.119 815.4 189.971C1152.21 -58.1774 1105.77 338.236 1298.03 189.971C1490.3 41.7056 1780.46 123.009 1636.95 345.093C1493.45 567.177 1714.61 457.579 1753.03 590.717C1791.45 723.855 1754.69 821.743 1599.28 874.383Z" fill="#FFACB3"/>
</g>
</g>
<defs>
<clipPath id="clip0_567_1684">
<rect width="1920" height="1080" fill="white"/>
</clipPath>
</defs>
</svg>
