<svg width="1920" height="1080" viewBox="0 0 1920 1080" fill="none" xmlns="http://www.w3.org/2000/svg">
<g clip-path="url(#clip0_567_1692)">
<mask id="mask0_567_1692" style="mask-type:luminance" maskUnits="userSpaceOnUse" x="0" y="0" width="1920" height="1080">
<path d="M1920 0H0V1080H1920V0Z" fill="white"/>
</mask>
<g mask="url(#mask0_567_1692)">
<path d="M1011.97 924.961C710.407 1103.19 709.647 709.125 331.169 892.892C-47.3088 1076.66 86.4082 541.211 183.109 415.558C279.81 289.905 308.909 183.745 510.038 129.376C711.167 75.0074 746.861 454.051 1083.67 205.903C1420.49 -42.2446 1324.19 359.109 1600.18 166.531C1876.17 -26.0466 1933.32 489.499 1760.59 596.016C1587.85 702.533 1701.09 787.489 1600.18 892.889C1499.26 998.289 1313.53 746.728 1011.97 924.961Z" fill="#FFACB3"/>
</g>
</g>
<defs>
<clipPath id="clip0_567_1692">
<rect width="1920" height="1080" fill="white"/>
</clipPath>
</defs>
</svg>
