<svg width="1920" height="1080" viewBox="0 0 1920 1080" fill="none" xmlns="http://www.w3.org/2000/svg">
<g clip-path="url(#clip0_567_1700)">
<mask id="mask0_567_1700" style="mask-type:luminance" maskUnits="userSpaceOnUse" x="0" y="0" width="1920" height="1080">
<path d="M1920 0H0V1080H1920V0Z" fill="white"/>
</mask>
<g mask="url(#mask0_567_1700)">
<path d="M383.162 907.364C56.8568 1155.61 -4.65016 700.638 241.48 575.193C487.61 449.748 138.097 328.503 502.19 127.035C866.283 -74.4327 661.878 405.422 950.972 234.771C1240.07 64.1203 1118.49 301.847 1476.67 136.662C1834.85 -28.5227 1523.97 443.674 1718.97 490.648C1913.98 537.622 1852.37 777.022 1514.93 947.816C1177.5 1118.61 1326.73 826.924 924.815 971.575C522.895 1116.23 709.468 659.124 383.162 907.364Z" fill="#FFACB3"/>
</g>
</g>
<defs>
<clipPath id="clip0_567_1700">
<rect width="1920" height="1080" fill="white"/>
</clipPath>
</defs>
</svg>
