<svg width="1920" height="1080" viewBox="0 0 1920 1080" fill="none" xmlns="http://www.w3.org/2000/svg">
<g clip-path="url(#clip0_567_1708)">
<mask id="mask0_567_1708" style="mask-type:luminance" maskUnits="userSpaceOnUse" x="0" y="0" width="1920" height="1080">
<path d="M1920 0H0V1080H1920V0Z" fill="white"/>
</mask>
<g mask="url(#mask0_567_1708)">
<path d="M175.225 576.91C-35.6298 637.504 191.998 180.71 479.725 78.7206C767.452 -23.2684 614.437 436.708 978.125 217.138C1341.81 -2.43243 1173.38 293.009 1500.64 132.438C1827.9 -28.1334 1549.06 489.121 1741.16 476.285C1933.26 463.449 1775.35 828.841 1543.1 947.62C1310.85 1066.4 1370.11 633.02 1042.34 883.057C714.559 1133.09 746.119 841.445 370.423 958.912C-5.27283 1076.38 386.08 516.316 175.225 576.91Z" fill="#FFACB3"/>
</g>
</g>
<defs>
<clipPath id="clip0_567_1708">
<rect width="1920" height="1080" fill="white"/>
</clipPath>
</defs>
</svg>
