<svg width="1920" height="1080" viewBox="0 0 1920 1080" fill="none" xmlns="http://www.w3.org/2000/svg">
<g clip-path="url(#clip0_567_1716)">
<mask id="mask0_567_1716" style="mask-type:luminance" maskUnits="userSpaceOnUse" x="0" y="0" width="1920" height="1080">
<path d="M1920 0H0V1080H1920V0Z" fill="white"/>
</mask>
<g mask="url(#mask0_567_1716)">
<path d="M481 165.703C658.357 13.9898 673.764 380.946 997.647 188.354C1321.53 -4.23819 1192.95 288.421 1510.77 142.529C1828.58 -3.36319 1457.36 535.44 1705.74 410.969C1954.12 286.498 1755.73 901.801 1462.65 927.229C1169.58 952.657 1302.1 729.258 1039.27 908.494C776.443 1087.73 701.152 756.594 481 859.987C260.848 963.38 -36.4909 937.447 172.659 653.413C381.809 369.379 303.643 317.416 481 165.703Z" fill="#FFACB3"/>
</g>
</g>
<defs>
<clipPath id="clip0_567_1716">
<rect width="1920" height="1080" fill="white"/>
</clipPath>
</defs>
</svg>
