<svg width="1920" height="1080" viewBox="0 0 1920 1080" fill="none" xmlns="http://www.w3.org/2000/svg">
<g clip-path="url(#clip0_567_1724)">
<mask id="mask0_567_1724" style="mask-type:luminance" maskUnits="userSpaceOnUse" x="0" y="0" width="1920" height="1080">
<path d="M1920 0H0V1080H1920V0Z" fill="white"/>
</mask>
<g mask="url(#mask0_567_1724)">
<path d="M998.014 180.94C1311.14 34.3258 1202.61 260.274 1471.2 140.34C1739.79 20.4058 1481.15 483.26 1692.41 427.827C1903.67 372.394 1837.49 801.408 1556.69 896.69C1275.89 991.972 1451.61 653.928 1083.69 861.741C715.769 1069.55 871.629 738.919 523.073 861.741C174.517 984.563 7.81509 866.728 159.33 669.068C310.845 471.408 257.236 306.768 477.264 159.645C697.292 12.5218 684.887 327.554 998.014 180.94Z" fill="#FFACB3"/>
</g>
</g>
<defs>
<clipPath id="clip0_567_1724">
<rect width="1920" height="1080" fill="white"/>
</clipPath>
</defs>
</svg>
