<svg width="40" height="53" viewBox="0 0 40 53" fill="none" xmlns="http://www.w3.org/2000/svg">
<path d="M35.1425 0C35.3425 0 35.5425 0 35.7525 0C35.9325 0.11 36.1225 0.199966 36.2725 0.339966C36.3925 0.449966 36.4425 0.62001 36.5425 0.76001C36.8725 1.22001 36.7225 1.79004 36.9325 2.29004C37.1425 2.77004 37.1324 3.34 37.2024 3.88C37.2524 4.25 37.3024 4.62 37.3224 5C37.3624 5.78 37.3425 6.55998 37.4225 7.34998C37.5025 8.15998 37.3824 8.98995 37.3224 9.81995C37.2924 10.3399 37.3724 10.85 37.2324 11.38C37.1124 11.83 37.1024 12.31 36.9624 12.78C36.8824 13.06 36.9725 13.3699 36.8025 13.6899C36.6325 13.9999 36.6225 14.4 36.5325 14.76C36.5025 14.91 36.4525 15.0499 36.4125 15.1899C36.3125 15.5199 36.2324 15.8699 36.1124 16.1899C35.9824 16.5099 35.8125 16.81 35.6625 17.12C35.7725 17.09 35.8325 16.98 35.9025 16.97C36.2125 16.91 36.5324 16.86 36.8524 16.84C37.1324 16.82 37.6425 17.2 37.6825 17.47C37.7125 17.66 37.7225 17.9 37.6225 18.04C37.3925 18.37 37.0924 18.65 36.8624 18.9C37.2424 19.03 37.6724 19.19 38.0724 19.33C38.1224 19.44 38.1325 19.54 38.1825 19.58C38.4825 19.81 38.3724 20.14 38.3324 20.41C38.3124 20.59 38.1224 20.81 37.9524 20.9C37.7324 21.01 37.4524 21.02 37.1924 21.04C36.8824 21.06 36.5825 21.04 36.2525 21.04C36.3725 21.22 36.4724 21.38 36.5824 21.52C36.7824 21.78 37.0224 22 37.1924 22.28C37.5424 22.85 37.8625 23.44 38.1825 24.03C38.3925 24.42 38.5925 24.81 38.7625 25.21C38.8725 25.46 38.9325 25.72 39.0225 25.98C39.0625 26.1 39.1125 26.23 39.1425 26.35C39.2125 26.59 39.2824 26.8299 39.3224 27.0699C39.4024 27.5699 39.7524 27.99 39.6924 28.52C39.6924 28.55 39.6924 28.58 39.6924 28.61C39.8824 29.04 39.9425 29.5 39.9325 29.97C39.9325 30.03 39.9725 30.09 39.9925 30.15V34.4C39.9925 34.4 39.9425 34.44 39.9325 34.46C39.8825 34.85 39.8425 35.23 39.8025 35.62C39.8025 35.66 39.8025 35.7 39.7925 35.74C39.7025 35.96 39.5825 36.17 39.5025 36.39C39.4325 36.58 39.4324 36.79 39.3524 36.97C39.1124 37.52 38.8224 38.06 38.5824 38.62C38.3124 39.25 37.9025 39.78 37.5425 40.35C37.4525 40.5 37.3024 40.61 37.1924 40.75C36.8224 41.2 36.4824 41.68 36.0924 42.1C35.7424 42.47 35.3524 42.81 34.9524 43.13C34.5524 43.45 34.1624 43.81 33.7124 44.03C33.1624 44.3 32.7225 44.7301 32.1325 44.9301C31.9025 45.0101 31.6924 45.1399 31.4524 45.1899C31.2124 45.2399 31.0024 45.32 30.8424 45.51C30.7924 45.56 30.7225 45.61 30.6625 45.62C30.2925 45.71 29.9125 45.78 29.5325 45.88C29.0625 46.01 28.5925 46.15 28.1425 46.29C28.2825 46.51 28.3924 46.81 28.6024 47.01C28.9424 47.36 28.9524 47.8 28.9724 48.21C28.9924 48.6 28.9524 49.02 28.8524 49.4C28.7624 49.72 28.5725 50.02 28.3725 50.29C28.2125 50.51 27.9625 50.65 27.7725 50.85C27.2625 51.4 26.5725 51.6001 25.8825 51.6801C25.4225 51.7301 24.9424 51.6199 24.4824 51.5699C24.4724 51.5699 24.4624 51.5699 24.4524 51.5699C24.0424 51.2799 23.5324 51.2299 23.1024 50.9399C22.5624 50.5699 21.9224 50.35 21.4724 49.83C21.4424 49.79 21.3225 49.78 21.2925 49.8C20.9325 50.17 20.4825 50.2101 20.0025 50.1801C19.8725 50.1801 19.7024 50.2299 19.6124 50.3199C19.0324 50.9499 18.3925 51.5 17.6325 51.89C17.4025 52.01 17.1924 52.16 16.9424 52.23C16.6224 52.33 16.2824 52.4 15.9424 52.41C15.4224 52.43 14.8925 52.43 14.3825 52.34C14.0125 52.28 13.6525 52.0801 13.2925 51.9301C12.8925 51.7601 12.5224 51.56 12.2124 51.25C12.0324 51.07 11.8924 50.86 11.7424 50.66C11.4524 50.27 11.1925 49.86 11.2525 49.33C11.2725 49.13 11.2525 48.93 11.2525 48.72C11.2525 48.66 11.2325 48.56 11.2625 48.54C11.5225 48.38 11.4225 48.06 11.5625 47.85C11.7225 47.62 11.8625 47.36 12.0425 47.14C12.2125 46.93 12.4224 46.7501 12.6024 46.5601C12.2524 46.4301 11.8725 46.66 11.5225 46.37C11.3425 46.22 10.9924 46.27 10.7224 46.23C10.4524 46.19 10.1825 46.16 9.9225 46.1C9.5025 46 9.09251 45.86 8.68251 45.74C8.50251 45.69 8.31247 45.67 8.14247 45.59C7.91247 45.48 7.71243 45.2999 7.47243 45.2C6.90243 44.9599 6.31241 44.79 5.82241 44.4C5.56241 44.2 5.24244 44.09 4.98244 43.89C4.69244 43.67 4.4325 43.4 4.1725 43.13C3.7325 42.69 3.30247 42.25 2.89247 41.79C2.68247 41.56 2.52243 41.29 2.34243 41.02C2.21243 40.82 2.08243 40.61 1.97243 40.39C1.89243 40.24 1.85248 40.06 1.77248 39.91C1.57248 39.49 1.28247 39.11 1.26247 38.62C1.26247 38.6 1.21241 38.5899 1.20241 38.5699C1.12241 38.4099 1.03245 38.25 0.99245 38.08C0.95245 37.92 1.0225 37.74 0.792498 37.63C0.692498 37.59 0.652464 37.37 0.632464 37.23C0.572464 36.88 0.542459 36.52 0.502459 36.16C0.502459 36.11 0.462401 36.07 0.442401 36.02C0.402401 35.92 0.352415 35.82 0.332415 35.71C0.322415 35.65 0.382435 35.53 0.352435 35.51C0.0524349 35.29 0.252445 34.93 0.112445 34.64C-0.0275554 34.35 0.0224886 33.95 0.0324886 33.6C0.0324886 32.9 0.0724153 32.19 0.0824153 31.49C0.0924153 30.82 0.0924153 30.16 0.332415 29.51C0.402415 29.31 0.37244 29.07 0.48244 28.83C0.64244 28.5 0.67245 28.1 0.74245 27.73C0.81245 27.41 0.972479 27.12 1.02248 26.78C1.08248 26.38 1.35248 26.02 1.52248 25.64C1.83248 24.96 2.12242 24.27 2.46242 23.6C2.60242 23.32 2.4925 23.2899 2.2925 23.1899C1.7125 22.8999 1.5525 22.64 1.6725 22.03C1.7125 21.83 1.97248 21.67 2.15248 21.51C2.22248 21.44 2.33243 21.41 2.47243 21.34C2.29243 21.25 2.1225 21.21 2.0425 21.11C1.7525 20.73 1.72248 20.2799 1.77248 19.8199C1.77248 19.7699 1.83246 19.7299 1.88246 19.6899C2.16246 19.4199 2.51243 19.43 2.84243 19.45C2.75243 19.07 2.66252 18.6801 2.56252 18.3101C2.50252 18.1101 2.40243 17.92 2.34243 17.71C2.25243 17.4 1.98247 17.12 2.14247 16.86C2.04247 16.53 1.92248 16.29 1.90248 16.04C1.87248 15.52 1.77249 15.03 1.66249 14.53C1.56249 14.08 1.56248 13.61 1.52248 13.14C1.52248 13.06 1.55247 12.95 1.51247 12.9C1.24247 12.55 1.58243 12.05 1.22243 11.72C1.20243 11.07 1.14245 10.41 1.12245 9.77002C1.06245 7.61002 1.03243 5.45004 1.22243 3.29004C1.22243 3.24004 1.22245 3.18001 1.24245 3.14001C1.49245 2.79001 1.47249 2.35996 1.53249 1.95996C1.54249 1.88996 1.58244 1.82001 1.61244 1.76001C1.70244 1.54001 1.82247 1.31997 1.89247 1.08997C1.99247 0.779966 2.55244 0.330049 2.86244 0.300049C3.17244 0.260049 3.38245 0.450059 3.62245 0.560059C4.02245 0.750059 4.39247 0.979971 4.76247 1.21997C5.11247 1.43997 5.43248 1.70994 5.77248 1.93994C6.15248 2.18994 6.42249 2.55997 6.78249 2.83997C7.27249 3.21997 7.70246 3.69001 8.13246 4.14001C8.59246 4.63001 9.02243 5.14001 9.47243 5.64001C9.58243 5.76001 9.73241 5.84998 9.82241 5.97998C10.0824 6.32998 10.3224 6.70005 10.5824 7.05005C10.8524 7.43005 11.1325 7.80004 11.4225 8.17004C11.5325 8.31004 11.6825 8.41006 11.7825 8.56006C11.9625 8.84006 12.1025 9.14994 12.2725 9.43994C12.4925 9.84994 12.7324 10.25 12.9524 10.66C13.1024 10.94 13.1825 11.27 13.3925 11.49C13.6625 11.77 13.7024 12.14 13.8624 12.45C13.9824 12.68 14.0625 12.93 14.1625 13.17C14.2825 13.44 14.4325 13.7 14.5225 13.98C14.6325 14.31 14.7025 14.6601 14.7725 14.9301C15.1225 14.7401 15.4825 14.59 15.7925 14.38C16.0825 14.18 16.3824 14.0801 16.7324 14.0601C17.0124 14.0401 17.2924 13.85 17.5724 13.86C18.4924 13.89 19.4324 13.71 20.3424 13.96C20.5924 14.03 20.8524 14.03 21.1124 14.09C21.2424 14.12 21.3724 14.2 21.4824 14.29C21.6924 14.45 21.8825 14.4 21.9325 14.15C21.9525 14.08 21.9825 14.01 22.0125 13.95C22.1325 13.75 22.2725 13.55 22.3925 13.34C22.7825 12.68 23.1625 12.01 23.5625 11.35C23.8525 10.88 24.1324 10.39 24.4724 9.95996C24.9124 9.38996 25.1924 8.71997 25.7324 8.21997C25.9124 8.04997 25.9825 7.77996 26.1425 7.57996C26.4225 7.21996 26.7225 6.87002 27.0225 6.52002C27.1025 6.43002 27.2225 6.36001 27.2625 6.26001C27.4925 5.72001 27.9624 5.37004 28.3224 4.92004C28.6724 4.49004 29.1225 4.14001 29.5225 3.76001C29.8925 3.41001 30.2525 3.04996 30.6225 2.70996C30.8825 2.47996 31.1625 2.28996 31.4325 2.07996C31.7825 1.79996 32.1225 1.47998 32.4925 1.22998C32.8225 0.99998 33.1925 0.830005 33.5525 0.630005C33.7525 0.520005 33.9425 0.390059 34.1525 0.310059C34.4625 0.190059 34.7824 0.1 35.1024 0H35.1425Z" fill="#B42828"/>
</svg>
