<svg width="1080" height="1920" viewBox="0 0 1080 1920" fill="none" xmlns="http://www.w3.org/2000/svg">
<g clip-path="url(#clip0_567_1732)">
<mask id="mask0_567_1732" style="mask-type:luminance" maskUnits="userSpaceOnUse" x="0" y="0" width="1080" height="1920">
<path d="M1080 1920L1080 0L0 -4.72083e-05L-8.39259e-05 1920L1080 1920Z" fill="white"/>
</mask>
<g mask="url(#mask0_567_1732)">
<path d="M943.75 1506.61C869.396 1652.24 653.992 1439.5 727.725 1658.8C801.458 1878.1 558.017 1937.96 310.218 1724.92C62.4191 1511.87 352.682 1468.55 182.863 1232.74C13.0441 996.935 265.995 1008.17 136.177 719.011C6.35918 429.847 321.715 496.419 265.938 288.275C210.161 80.1314 444.503 20.3624 706.868 255.506C969.233 490.65 1035.12 946.881 896.096 988.934C757.069 1030.99 1018.1 1360.99 943.75 1506.61Z" fill="#FFACB3"/>
</g>
</g>
<defs>
<clipPath id="clip0_567_1732">
<rect width="1920" height="1080" fill="white" transform="translate(1080) rotate(90)"/>
</clipPath>
</defs>
</svg>
