<svg width="1080" height="1920" viewBox="0 0 1080 1920" fill="none" xmlns="http://www.w3.org/2000/svg">
<g clip-path="url(#clip0_567_1772)">
<mask id="mask0_567_1772" style="mask-type:luminance" maskUnits="userSpaceOnUse" x="0" y="0" width="1080" height="1920">
<path d="M1080 1920L1080 0L0 -4.72083e-05L-8.39259e-05 1920L1080 1920Z" fill="white"/>
</mask>
<g mask="url(#mask0_567_1772)">
<path d="M172.636 383.16C-75.6063 56.8548 379.362 -4.65214 504.807 241.478C630.252 487.608 751.497 138.095 952.965 502.188C1154.43 866.281 674.578 661.876 845.229 950.97C1015.88 1240.06 778.153 1118.49 943.338 1476.67C1108.52 1834.85 636.326 1523.96 589.352 1718.97C542.378 1913.98 302.978 1852.37 132.184 1514.93C-38.6104 1177.5 253.076 1326.73 108.425 924.813C-36.2263 522.893 420.876 709.466 172.636 383.16Z" fill="#FFACB3"/>
</g>
</g>
<defs>
<clipPath id="clip0_567_1772">
<rect width="1920" height="1080" fill="white" transform="translate(1080) rotate(90)"/>
</clipPath>
</defs>
</svg>
